DBRep_DrawableShape

CASCADE Topology V3, (c) Open Cascade
Locations 0
Curve2ds 252
1 -49.5 4.9966326177719803e-16 -1 3.2945369072916475e-18 
1 1.4181818181818182 -1.1681818181818171 0 1 
1 49.015691812525539 -6.9073841748897067 0.99021599621263723 -0.13954311464423652 
2 0 0 -1 3.2945369072916475e-18 3.2945369072916475e-18 1 51.500000000000007
1 0 0 1 0 
2 0 0 1 0 -0 1 50
2 0 0 -0.99021599621263723 0.13954311464423652 0.13954311464423652 0.99021599621263723 50
1 -47.57224419638316 13.679604603923632 -0.961055438310771 0.27635564856411388 
1 1.4181818181818182 -1.1681818181818171 0 1 
2 0 0 -0.99021599621263723 0.13954311464423652 0.13954311464423652 0.99021599621263723 50
1 49.015691812525539 6.9073841748897058 0.99021599621263723 0.13954311464423655 
1 51.5 1.3574219215192865e-16 -1 -3.2945369072916475e-18 
1 -1.5818181818181818 0.83181818181818246 0 -1 
1 0 0 0 1 
1 1.4181818181818182 0.12551857861936355 -1 0 
1 0 0 0 1 
1 0.21818181818181825 0.83181818181818246 -1 0 
1 0.21818181818181825 1.331818181818184 0 -1 
1 1.4181818181818182 0.83181818181818246 0 1 
1 0 0 0 1 
1 1.4181818181818182 1.331818181818184 -1 0 
2 0 0 0.61595588031143156 0.78778065063174119 0.78778065063174119 -0.61595588031143156 50
1 -3.0015926535897894 0 1 0 
2 50.185100148029314 -7.8800839546459382 0 -1 1 0 0.80000000000000004
1 1.4181818181818182 -1.1681818181818173 0 1 
1 -47.57224419638316 13.679604603923638 -0.961055438310771 0.27635564856411393 
1 -18.525875737109658 -45.902526381160889 -0.37426011590120523 -0.9273237652759776 
1 0 3 1 0 
2 0 0 -1 8.0139714661065206e-17 8.0139714661065206e-17 1 49.500000000000007
2 0 0 -0.61595588031143156 -0.78778065063174119 0.78778065063174119 -0.61595588031143156 49.500000000000007
1 49.015691812525539 -6.9073841748897067 0.99021599621263723 -0.13954311464423652 
1 1.4181818181818182 -1.1681818181818229 0 1 
1 -49.5 2.7311216270708993e-15 -1 8.0139714661065206e-17 
1 -30.48981607541586 -38.995142206271183 -0.61595588031143156 -0.78778065063174119 
1 0 3 1 0 
2 0 0 -1 3.2945369072916475e-18 3.2945369072916475e-18 1 49.500000000000007
2 0 0 0.99021599621263723 -0.13954311464423652 0.13954311464423652 0.99021599621263723 49.500000000000007
2 0 0 0.61595588031143156 0.78778065063174119 0.78778065063174119 -0.61595588031143156 50
1 49.015691812525539 6.9073841748897058 0.99021599621263723 0.13954311464423655 
2 0 0 0.37426011590120523 -0.9273237652759776 -0.9273237652759776 -0.37426011590120523 50
1 -6.1431853071795821 0 1 0 
2 50.185100148029314 7.8800839546459382 0 -1 -1 -0 0.80000000000000004
1 1.4181818181818182 -1.1681818181818229 0 1 
1 -47.572244196383153 13.679604603923629 -0.961055438310771 0.27635564856411382 
1 -30.489816075415856 38.995142206271183 -0.61595588031143156 0.78778065063174119 
1 0 3 1 0 
2 0 0 -1 -2.426855284775248e-17 -2.426855284775248e-17 1 49.499999999999993
2 0 0 -0.37426011590120523 0.9273237652759776 -0.9273237652759776 -0.37426011590120523 49.499999999999993
2 0 0 0.37426011590120523 -0.9273237652759776 -0.9273237652759776 -0.37426011590120523 50
1 1.4181818181818182 -1.1681818181818173 0 1 
1 -49.499999999999993 -3.6362212687588421e-16 -1 -2.426855284775248e-17 
1 -18.525875737109658 45.902526381160889 -0.37426011590120523 0.9273237652759776 
2 0 0 1 0 -0 1 48
1 0 1 1 0 
1 0 0 1 0 
1 1.4181818181818182 0.83181818181817524 0 1 
1 49.494355073004698 14.232315901051859 -0.961055438310771 -0.27635564856411388 
1 -1.5818181818181818 0.83181818181817524 -0 -1 
1 0 0 0 1 
1 1.4181818181818182 0.12551857861936355 -1 0 
1 0.28000000000000003 0 0 1 
1 0.21818181818181825 0.83181818181817524 -1 0 
1 0.21818181818181825 1.3318181818181769 -0 -1 
1 0.28000000000000003 0 0 1 
1 1.4181818181818182 1.3318181818181769 -1 0 
1 50.996123804950813 -7.1864704041781797 -0.99021599621263723 0.13954311464423652 
1 0 1.8 1 0 
2 0 0 1 3.2945369072916475e-18 -3.2945369072916475e-18 1 51.500000000000007
1 0 3 1 0 
2 0 0 1 0 -0 1 50
2 0 0 0.99021599621263723 0.13954311464423652 -0.13954311464423652 0.99021599621263723 50
2 0 0 0.99021599621263723 0.13954311464423652 -0.13954311464423652 0.99021599621263723 50
1 50.996123804950805 7.1864704041781788 -0.99021599621263723 -0.13954311464423655 
1 1.5550476443062318 0 0 1 
1 6.1274366246909331 0 0 1 
1 -3.0015926535897894 3 1 0 
2 50.185100148029314 -7.8800839546459382 0 -1 1 0 0.80000000000000004
1 0 0 1 0 
1 0 1.2 1 0 
1 2.6811524042024073e-15 0 0 1 
1 4.3445388872750446 0 0 1 
1 -3.8209401116767276 0 1 0 
2 -50.793700396801185 -0.7999999999999946 -0.78778065063174119 0.61595588031143167 -0.61595588031143167 -0.78778065063174119 0.80000000000000004
2 0 0 -1 8.0139714661065206e-17 8.0139714661065206e-17 1 51.500000000000007
2 0 0 -1 8.0139714661065206e-17 8.0139714661065206e-17 1 51.500000000000007
2 0 0 0.61595588031143156 0.78778065063174119 0.78778065063174119 -0.61595588031143156 50
1 -2.7737425604801578 0 1 0 
2 -48.594477479422451 14.805970366777894 -0.78778065063174119 0.61595588031143167 0.61595588031143167 0.78778065063174119 0.80000000000000004
1 0 0 0 1 
1 2.2501437848818489 0 0 1 
1 0 0 0 1 
1 4.0330415222977374 0 0 1 
1 -5.9153352140699376 0 1 0 
2 -50.793700396801178 -0.79999999999999805 0.9273237652759776 0.37426011590120523 -0.37426011590120523 0.9273237652759776 0.80000000000000004
2 0 0 -1 -2.426855284775248e-17 -2.426855284775248e-17 1 51.5
2 0 0 -1 -2.426855284775248e-17 -2.426855284775248e-17 1 51.5
2 0 0 0.37426011590120523 -0.9273237652759776 -0.9273237652759776 -0.37426011590120523 50
1 -0.67934745808695018 0 1 0 
2 -48.594477479422444 14.805970366777892 0.9273237652759776 0.37426011590120523 0.37426011590120523 -0.9273237652759776 0.80000000000000004
1 1.5550476443062415 0 0 1 
1 0.15574868248865356 0 0 1 
1 -6.1431853071795821 3 1 0 
2 50.185100148029314 7.8800839546459382 0 -1 -1 -0 0.80000000000000004
1 1.167674576480439e-15 0 0 1 
1 1.9386464199045417 0 0 1 
1 6.2831853071795862 -0 0 1 
1 0 -0 0 1 
1 0 2.2000000000000002 1 0 
2 0 0 1 0 -0 1 48
2 0 0 -0.61595588031143156 0.78778065063174119 -0.78778065063174119 -0.61595588031143156 50
1 49.494355073004691 14.232315901051857 -0.961055438310771 -0.27635564856411393 
1 -1.5818181818181818 0.83181818181817024 0 -1 
1 -19.274395968912067 -47.757173911712833 0.37426011590120523 0.9273237652759776 
1 0 0 1 0 
2 0 0 1 8.0139714661065206e-17 -8.0139714661065206e-17 1 49.500000000000007
2 0 0 -0.61595588031143156 -0.78778065063174119 0.78778065063174119 -0.61595588031143156 49.500000000000007
1 50.996123804950813 -7.1864704041781797 -0.99021599621263723 0.13954311464423652 
1 51.5 3.8634693725265106e-15 -1 -8.0139714661065206e-17 
1 -1.5818181818181818 0.83181818181817924 0 -1 
1 -31.72172783603872 -40.570703507534667 0.61595588031143156 0.78778065063174119 
1 0 0 1 0 
2 0 0 1 3.2945369072916475e-18 -3.2945369072916475e-18 1 49.500000000000007
2 0 0 0.99021599621263723 -0.13954311464423652 0.13954311464423652 0.99021599621263723 49.500000000000007
2 0 0 -0.61595588031143156 0.78778065063174119 -0.78778065063174119 -0.61595588031143156 50
1 50.996123804950805 7.1864704041781788 -0.99021599621263723 -0.13954311464423655 
2 0 0 -0.37426011590120523 -0.9273237652759776 0.9273237652759776 -0.37426011590120523 50
1 49.494355073004684 14.232315901051857 -0.961055438310771 -0.27635564856411382 
1 -1.5818181818181818 0.83181818181817158 -0 -1 
1 -31.721727836038717 40.57070350753466 0.61595588031143156 -0.78778065063174119 
1 0 0 1 0 
2 0 0 1 -2.426855284775248e-17 2.426855284775248e-17 1 49.499999999999993
2 0 0 -0.37426011590120523 0.9273237652759776 -0.9273237652759776 -0.37426011590120523 49.499999999999993
2 0 0 -0.37426011590120523 -0.9273237652759776 0.9273237652759776 -0.37426011590120523 50
1 51.499999999999993 1.8889736458125959e-15 -1 2.426855284775248e-17 
1 -1.5818181818181818 0.83181818181817813 -0 -1 
1 -19.274395968912067 47.75717391171284 0.37426011590120523 -0.9273237652759776 
2 -8.659739592076221e-15 -39 -2.2204460492503131e-16 -1 1 -2.2204460492503131e-16 2.25
1 0 4 1 0 
2 0 0 1 0 -0 1 20
1 0 4 1 0 
2 4.3298697960381105e-15 39 1.1102230246251565e-16 1 -1 1.1102230246251565e-16 2.25
1 0 4 1 0 
1 1.5550476443062271 0 0 1 
1 1.4181818181818182 0.12551857861936355 -1 0 
1 -2.7737425604801578 3 1 0 
2 48.594477479422451 14.805970366777894 0.78778065063174119 0.61595588031143167 -0.61595588031143167 0.78778065063174119 0.80000000000000004
1 1.5550476443062715 0 0 1 
1 1.4181818181818182 0.12551857861937066 -1 0 
1 0 0 0 1 
1 0.21818181818181825 0.83181818181817924 -1 0 
1 0.21818181818181825 1.3318181818181833 0 -1 
1 52 2.4244642815484827e-15 -1 -8.0139714661065206e-17 
1 1.4181818181818182 0.83181818181817924 0 1 
1 -51.5 3.8634693725265106e-15 -1 8.0139714661065206e-17 
1 0 0 0 1 
1 1.4181818181818182 1.3318181818181833 -1 0 
1 -3.8209401116767276 3 1 0 
2 50.793700396801185 -0.7999999999999946 0.78778065063174119 0.61595588031143167 0.61595588031143167 -0.78778065063174119 0.80000000000000004
1 0 0 1 0 
2 0 0 -1 8.0139714661065206e-17 8.0139714661065206e-17 1 52
1 1.4181818181818182 0.83181818181817024 0 1 
1 -49.494355073004691 14.232315901051857 -0.961055438310771 0.27635564856411393 
1 0.28000000000000003 0 0 1 
1 0.21818181818181825 0.83181818181817024 -1 0 
1 0.21818181818181825 1.3318181818181747 0 -1 
1 49.974882792160088 14.370493725333917 -0.961055438310771 -0.27635564856411393 
1 0.28000000000000003 0 0 1 
1 1.4181818181818182 1.3318181818181747 -1 0 
1 1.5550476443062538 0 0 1 
1 1.4181818181818182 0.12551857861937066 -1 0 
1 -0.67934745808695018 3 1 0 
2 48.594477479422444 14.805970366777892 -0.9273237652759776 0.37426011590120523 -0.37426011590120523 -0.9273237652759776 0.80000000000000004
1 1.5550476443062449 0 0 1 
1 1.4181818181818182 0.12551857861936355 -1 0 
1 0 0 0 1 
1 0.21818181818181825 0.83181818181817813 -1 0 
1 0.21818181818181825 1.3318181818181827 -0 -1 
1 51.999999999999993 -3.4151159672953495e-16 -1 2.426855284775248e-17 
1 1.4181818181818182 0.83181818181817813 0 1 
1 -51.499999999999993 1.8889736458125959e-15 -1 -2.426855284775248e-17 
1 0 0 0 1 
1 1.4181818181818182 1.3318181818181827 -1 0 
1 -5.9153352140699376 3 1 0 
2 50.793700396801178 -0.79999999999999805 -0.9273237652759776 0.37426011590120523 0.37426011590120523 0.9273237652759776 0.80000000000000004
1 0 0 1 0 
2 0 0 -1 -2.426855284775248e-17 -2.426855284775248e-17 1 51.999999999999993
1 1.4181818181818182 0.83181818181817158 0 1 
1 -49.494355073004684 14.232315901051857 -0.961055438310771 0.27635564856411382 
1 0.28000000000000003 0 0 1 
1 0.21818181818181825 0.83181818181817158 -1 0 
1 0.21818181818181825 1.3318181818181734 -0 -1 
1 49.974882792160074 14.370493725333914 -0.961055438310771 -0.27635564856411382 
1 0.28000000000000003 0 0 1 
1 1.4181818181818182 1.3318181818181734 -1 0 
2 -8.659739592076221e-15 -39 -2.2204460492503131e-16 -1 1 -2.2204460492503131e-16 4.5
1 0 2.2000000000000002 1 0 
2 0 0 1 0 -0 1 30
1 0 2.2000000000000002 1 0 
2 4.3298697960381105e-15 39 1.1102230246251565e-16 1 -1 1.1102230246251565e-16 4.5
1 0 2.2000000000000002 1 0 
1 0 1.8 1 0 
2 0 0 1 8.0139714661065206e-17 -8.0139714661065206e-17 1 51.500000000000007
2 0 0 -0.61595588031143156 0.78778065063174119 -0.78778065063174119 -0.61595588031143156 50
1 0 1.8 1 0 
2 0 0 1 -2.426855284775248e-17 2.426855284775248e-17 1 51.5
2 0 0 -0.37426011590120523 -0.9273237652759776 0.9273237652759776 -0.37426011590120523 50
1 0 3 1 0 
2 0 0 1 0 -0 1 2.25
1 6.2831853071795862 -0 0 1 
1 0 -0 0 1 
1 6.2831853071795862 -0 0 1 
1 0 -0 0 1 
2 0 0 1 0 -0 1 20
1 0 1 1 0 
1 0 3 1 0 
2 0 0 1 0 -0 1 2.25
1 6.2831853071795862 -0 0 1 
1 0 -0 0 1 
1 0 0 1 0 
2 0 0 1 8.0139714661065206e-17 -8.0139714661065206e-17 1 51.500000000000007
1 0 1.2 1 0 
2 0 0 1 8.0139714661065206e-17 -8.0139714661065206e-17 1 52
1 0 0 1 0 
2 0 0 1 -2.426855284775248e-17 2.426855284775248e-17 1 51.5
1 0 1.2 1 0 
2 0 0 1 -2.426855284775248e-17 2.426855284775248e-17 1 51.999999999999993
1 6.2831853071795862 -0 0 1 
1 0 -0 0 1 
2 -8.659739592076221e-15 -39 -2.2204460492503131e-16 -1 1 -2.2204460492503131e-16 4.5
1 0 1 1 0 
1 6.2831853071795862 -0 0 1 
1 0 -0 0 1 
2 0 0 1 0 -0 1 30
1 0 1 1 0 
1 6.2831853071795862 -0 0 1 
1 0 -0 0 1 
2 4.3298697960381105e-15 39 1.1102230246251565e-16 1 -1 1.1102230246251565e-16 4.5
1 0 1 1 0 
1 0 2 1 0 
2 0 0 1 0 -0 1 4.1000000000000014
1 0 2 1 0 
2 0 0 1 0 -0 1 4.1000000000000014
1 0 0 1 0 
2 0 0 1 0 -0 1 4.1000000000000014
2 -8.659739592076221e-15 -39 -2.2204460492503131e-16 -1 1 -2.2204460492503131e-16 4.1000000000000014
1 0 0 1 0 
2 0 0 1 0 -0 1 4.1000000000000014
2 4.3298697960381105e-15 39 1.1102230246251565e-16 1 -1 1.1102230246251565e-16 4.1000000000000014
1 6.2831853071795862 -0 0 1 
1 0 -0 0 1 
1 6.2831853071795862 -0 0 1 
1 0 -0 0 1 
Curves 122
1 49.015691812525539 -6.9073841748897067 0 0.99021599621263723 -0.13954311464423652 0 
8 0.50000000000000089 1.2937003968011829
1 49.015691812525539 -6.9073841748897067 0 0.99021599621263723 -0.13954311464423652 0 
2 0 0 0 -0 0 1 0.99021599621263723 -0.13954311464423652 0 0.13954311464423652 0.99021599621263723 0 51.5
2 0 0 0 0 0 1 1 0 -0 -0 1 0 50
1 49.015691812525539 6.9073841748897058 0 0.99021599621263723 0.13954311464423655 0 
8 0.49999999999999833 1.2937003968011829
1 49.015691812525539 6.9073841748897058 0 0.99021599621263723 0.13954311464423655 0 
1 50.996123804950813 -7.1864704041781797 3 -0.99021599621263723 0.13954311464423652 0 
1 50.296734639744706 -7.087911157675828 0 0 0 1 
1 50.996123804950813 -7.1864704041781797 1.2 0 0 1 
1 51.491231803057133 -7.2562419615002973 1.2 -0.99021599621263723 0.13954311464423652 0 
1 50.996123804950813 -7.1864704041781797 0 0.99021599621263723 -0.13954311464423652 0 
1 51.491231803057133 -7.2562419615002973 0 0 0 1 
8 4.3287902047863769 4.3445388872750446
2 0 0 0 0 0 1 1 0 -0 -0 1 0 50
8 3.001592653589789 4.5566402978960259
2 50.185100148029314 -7.8800839546459382 0 0 0 1 0 -1 0 1 0 -0 0.80000000000000004
1 -18.525875737109658 -45.902526381160889 0 -0.37426011590120523 -0.9273237652759776 0 
2 0 0 0 0 0 1 -0.61595588031143156 -0.78778065063174119 0 0.78778065063174119 -0.61595588031143167 0 49.5
1 -30.48981607541586 -38.995142206271183 0 -0.61595588031143156 -0.78778065063174119 0 
2 0 0 0 -0 0 1 0.99021599621263723 -0.13954311464423652 0 0.13954311464423652 0.99021599621263723 0 49.5
8 4.0330415222977374 4.0487902047863793
2 0 0 0 0 0 1 1 0 -0 -0 1 0 50
8 2.2343951023932069 2.2501437848818489
2 0 0 0 0 0 1 1 0 -0 -0 1 0 50
8 6.1431853071795821 7.6982329514858279
2 50.185100148029314 7.8800839546459382 0 -0 -0 -1 0 -1 0 -1 0 0 0.80000000000000004
1 -30.489816075415856 38.995142206271183 0 -0.61595588031143156 0.78778065063174119 0 
2 0 0 0 0 0 1 -0.37426011590120523 0.9273237652759776 0 -0.9273237652759776 -0.37426011590120523 0 49.5
8 1.9386464199045417 1.9543951023932098
2 0 0 0 0 0 1 1 0 -0 -0 1 0 50
1 -18.525875737109658 45.902526381160889 0 -0.37426011590120523 0.9273237652759776 0 
2 0 0 0 0 0 1 1 0 -0 -0 1 0 48
2 0 0 0 -0 0 1 0.99021599621263723 -0.13954311464423652 0 0.13954311464423652 0.99021599621263723 0 52
1 50.996123804950805 7.1864704041781788 0 0.99021599621263723 0.13954311464423655 0 
1 50.996123804950805 7.1864704041781788 3 -0.99021599621263723 -0.13954311464423655 0 
1 50.296734639744706 7.087911157675828 0 0 0 1 
1 50.996123804950805 7.1864704041781788 1.2 0 0 1 
1 51.491231803057126 7.2562419615002964 1.2 -0.99021599621263723 -0.13954311464423655 0 
1 51.491231803057126 7.2562419615002964 0 0 0 1 
8 0.70629960319881679 1.4999999999999987
1 50.996123804950813 -7.1864704041781797 3 -0.99021599621263723 0.13954311464423652 0 
2 0 0 3 -0 0 1 0.99021599621263723 -0.13954311464423652 0 0.13954311464423652 0.99021599621263723 0 51.5
2 0 0 3 0 0 1 1 0 -0 -0 1 0 50
8 0.70629960319880969 1.4999999999999942
1 50.996123804950805 7.1864704041781788 3 -0.99021599621263723 -0.13954311464423655 0 
1 49.394783610265073 -7.7559881443365439 0 0 0 1 
8 3.001592653589789 4.5566402978960259
2 50.185100148029314 -7.8800839546459382 3 0 0 1 0 -1 0 1 0 -0 0.80000000000000004
2 0 0 1.2 -0 0 1 0.99021599621263723 -0.13954311464423652 0 0.13954311464423652 0.99021599621263723 0 51.5
2 0 0 1.2 -0 0 1 0.99021599621263723 -0.13954311464423652 0 0.13954311464423652 0.99021599621263723 0 52
1 -17.980509040686151 -46.655131493093052 0 0 0 1 
8 3.8209401116767276 5.3759877559830027
2 -31.916902962692173 -39.521529642336617 0 -0 -0 -1 0 -1 0 -1 0 0 0.80000000000000004
2 0 0 0 0 0 1 -0.61595588031143156 -0.78778065063174119 0 0.78778065063174119 -0.61595588031143167 0 51.5
8 2.7737425604801604 4.3287902047863946
2 -18.268197185337122 -47.40161359698255 0 0 0 1 0 -1 0 1 0 -0 0.80000000000000004
1 -31.414274569578911 38.89914334875651 0 0 0 1 
1 -31.414274569578922 -38.899143348756503 0 0 0 1 
8 5.915335214069942 7.4703828583761718
2 -18.268197185337122 47.40161359698255 0 -0 -0 -1 0 -1 0 -1 0 0 0.80000000000000004
2 0 0 0 0 0 1 -0.37426011590120523 0.9273237652759776 0 -0.9273237652759776 -0.37426011590120523 0 51.5
8 0.67934745808695363 2.2343951023932065
2 -31.916902962692173 39.521529642336617 0 0 0 1 0 -1 0 1 0 -0 0.80000000000000004
1 49.394783610265073 7.7559881443365519 0 0 0 1 
8 6.1431853071795821 7.6982329514858279
2 50.185100148029314 7.8800839546459382 3 -0 -0 -1 0 -1 0 -1 0 0 0.80000000000000004
1 -17.98050904068614 46.655131493093059 0 0 0 1 
1 48 -1.175660927181459e-14 -1 0 0 1 
2 0 0 1.2000000000000002 0 0 1 1 0 -0 -0 1 0 48
8 4.3287902047863769 4.3445388872750446
2 0 0 3 0 0 1 1 0 -0 -0 1 0 50
1 -19.274395968912067 -47.757173911712833 3 0.37426011590120523 0.9273237652759776 0 
2 0 0 3 0 0 1 -0.61595588031143156 -0.78778065063174119 0 0.78778065063174119 -0.61595588031143167 0 49.5
1 -31.72172783603872 -40.570703507534667 3 0.61595588031143156 0.78778065063174119 0 
2 0 0 3 -0 0 1 0.99021599621263723 -0.13954311464423652 0 0.13954311464423652 0.99021599621263723 0 49.5
8 4.0330415222977374 4.0487902047863793
2 0 0 3 0 0 1 1 0 -0 -0 1 0 50
8 2.2343951023932069 2.2501437848818489
2 0 0 3 0 0 1 1 0 -0 -0 1 0 50
1 -31.721727836038717 40.57070350753466 3 0.61595588031143156 -0.78778065063174119 0 
2 0 0 3 0 0 1 -0.37426011590120523 0.9273237652759776 0 -0.9273237652759776 -0.37426011590120523 0 49.5
8 1.9386464199045417 1.95439510239321
2 0 0 3 0 0 1 1 0 -0 -0 1 0 50
1 -19.274395968912067 47.75717391171284 3 0.37426011590120523 -0.9273237652759776 0 
2 -8.659739592076221e-15 -39 3 0 0 1 -2.2204460492503131e-16 -1 0 1 -2.2204460492503131e-16 0 2.25
2 0 0 3 0 0 1 1 0 -0 -0 1 0 20
2 4.3298697960381105e-15 39 3 0 0 1 1.1102230246251565e-16 1 -0 -1 1.1102230246251565e-16 0 2.25
1 -19.010056197557905 -47.102205504261583 0 0 0 1 
8 2.7737425604801604 4.3287902047863964
2 -18.268197185337122 -47.40161359698255 3 0 0 1 0 -1 0 1 0 -0 0.80000000000000004
1 -31.286678442186783 -40.014294346585771 0 0 0 1 
1 -31.72172783603872 -40.570703507534667 1.2 0 0 1 
1 -32.02970577619444 -40.964593832850539 1.2 0.61595588031143156 0.78778065063174119 0 
1 -31.72172783603872 -40.570703507534667 0 -0.61595588031143156 -0.78778065063174119 0 
1 -32.02970577619444 -40.964593832850539 0 0 0 1 
8 3.8209401116767276 5.3759877559830027
2 -31.916902962692173 -39.521529642336617 3 -0 -0 -1 0 -1 0 -1 0 0 0.80000000000000004
2 0 0 0 0 0 1 -0.61595588031143156 -0.78778065063174119 0 0.78778065063174119 -0.61595588031143167 0 52
1 -19.274395968912067 -47.757173911712833 0 -0.37426011590120523 -0.9273237652759776 0 
1 -19.274395968912067 -47.757173911712833 1.2 0 0 1 
1 -19.461526026862671 -48.220835794350826 1.2 0.37426011590120523 0.9273237652759776 0 
1 -19.461526026862671 -48.220835794350826 0 0 0 1 
1 -31.286678442186783 40.014294346585771 0 0 0 1 
8 0.67934745808695363 2.2343951023931994
2 -31.916902962692173 39.521529642336617 3 0 0 1 0 -1 0 1 0 -0 0.80000000000000004
1 -19.010056197557905 47.102205504261583 0 0 0 1 
1 -19.274395968912067 47.75717391171284 1.2 0 0 1 
1 -19.461526026862671 48.220835794350833 1.2 0.37426011590120523 -0.9273237652759776 0 
1 -19.274395968912067 47.75717391171284 0 -0.37426011590120523 0.9273237652759776 0 
1 -19.461526026862671 48.220835794350833 0 0 0 1 
8 5.915335214069942 7.4703828583761815
2 -18.268197185337122 47.40161359698255 3 -0 -0 -1 0 -1 0 -1 0 0 0.80000000000000004
2 0 0 0 0 0 1 -0.37426011590120523 0.9273237652759776 0 -0.9273237652759776 -0.37426011590120523 0 52
1 -31.721727836038717 40.57070350753466 0 -0.61595588031143156 0.78778065063174119 0 
1 -31.721727836038717 40.57070350753466 1.2 0 0 1 
1 -32.029705776194433 40.964593832850532 1.2 0.61595588031143156 -0.78778065063174119 0 
1 -32.029705776194433 40.964593832850532 0 0 0 1 
2 -8.659739592076221e-15 -39 1.2000000000000002 0 0 1 -2.2204460492503131e-16 -1 0 1 -2.2204460492503131e-16 0 4.5
2 0 0 1.2000000000000002 0 0 1 1 0 -0 -0 1 0 30
2 4.3298697960381105e-15 39 1.2000000000000002 0 0 1 1.1102230246251565e-16 1 -0 -1 1.1102230246251565e-16 0 4.5
2 0 0 3 0 0 1 -0.61595588031143156 -0.78778065063174119 0 0.78778065063174119 -0.61595588031143167 0 51.5
2 0 0 3 0 0 1 -0.37426011590120523 0.9273237652759776 0 -0.9273237652759776 -0.37426011590120523 0 51.5
2 -8.659739592076221e-15 -39 2 0 0 1 -2.2204460492503131e-16 -1 0 1 -2.2204460492503131e-16 0 2.25
1 -9.7104310127738496e-15 -41.25 -1 0 0 1 
1 20 -4.898587196589413e-15 -1 0 0 1 
2 0 0 0 0 0 1 1 0 -0 -0 1 0 20
2 4.3298697960381105e-15 39 2 0 -0 1 1.1102230246251565e-16 1 0 -1 1.1102230246251565e-16 0 2.25
1 5.1307610361950797e-15 41.25 -1 0 0 1 
2 0 0 1.2 0 0 1 -0.61595588031143156 -0.78778065063174119 0 0.78778065063174119 -0.61595588031143167 0 51.5
2 0 0 1.2 0 0 1 -0.61595588031143156 -0.78778065063174119 0 0.78778065063174119 -0.61595588031143167 0 52
2 0 0 1.2 0 0 1 -0.37426011590120523 0.9273237652759776 0 -0.9273237652759776 -0.37426011590120523 0 51.5
2 0 0 1.2 0 0 1 -0.37426011590120523 0.9273237652759776 0 -0.9273237652759776 -0.37426011590120523 0 52
1 -1.076112243347148e-14 -43.5 -1 0 0 1 
2 -8.659739592076221e-15 -39 0 0 0 1 -2.2204460492503131e-16 -1 0 1 -2.2204460492503131e-16 0 4.5
1 30 -7.3478807948841199e-15 -1 0 0 1 
2 0 0 0 0 0 1 1 0 -0 -0 1 0 30
1 5.9316522763520489e-15 43.5 -1 0 0 1 
2 4.3298697960381105e-15 39 0 0 0 1 1.1102230246251565e-16 1 -0 -1 1.1102230246251565e-16 0 4.5
2 -8.659739592076221e-15 -39 2 0 0 1 -2.2204460492503131e-16 -1 0 1 -2.2204460492503131e-16 0 4.0999999999999996
2 4.3298697960381105e-15 39 2 0 -0 1 1.1102230246251565e-16 1 0 -1 1.1102230246251565e-16 0 4.0999999999999996
2 -8.659739592076221e-15 -39 0 0 0 1 -2.2204460492503131e-16 -1 0 1 -2.2204460492503131e-16 0 4.0999999999999996
2 4.3298697960381105e-15 39 0 0 -0 1 1.1102230246251565e-16 1 0 -1 1.1102230246251565e-16 0 4.0999999999999996
1 -1.0574332847569679e-14 -43.100000000000001 0 0 0 1 
1 5.7892716114352543e-15 43.100000000000001 0 0 0 1 
Polygon3D 0
PolygonOnTriangulations 0
Surfaces 50
1 0 0 0 0 0 1 -0.99021599621263723 0.13954311464423652 0 0.13954311464423652 0.99021599621263723 0 
1 50.172444135373937 -7.0703959042695645 1.4181818181818182 -0.13954311464423652 -0.99021599621263723 -0 0 0 -1 0.99021599621263723 -0.13954311464423652 0 
1 0 0 0 0 0 1 1 0 -0 -0 1 0 
1 0 0 0 0 0 1 -0.99021599621263723 0.13954311464423652 0 0.13954311464423652 0.99021599621263723 0 
2 0 0 0 0 0 1 1 0 -0 -0 1 0 50
1 50.172444135373937 7.0703959042695645 1.4181818181818182 0.13954311464423655 -0.99021599621263723 0 0 0 -1 0.99021599621263723 0.13954311464423655 0 
1 0 0 3 0 0 1 0.99021599621263723 -0.13954311464423652 0 0.13954311464423652 0.99021599621263723 0 
2 50.185100148029314 -7.8800839546459382 0 0 0 1 0.13954311464423652 0.99021599621263723 -0 -0.99021599621263723 0.13954311464423652 0 0.80000000000000004
2 0 0 1.2 0 0 1 0.99021599621263723 -0.13954311464423652 0 0.13954311464423652 0.99021599621263723 0 51.5
2 0 0 0 0 0 1 0.99021599621263723 -0.13954311464423652 0 0.13954311464423652 0.99021599621263723 0 52
1 0 0 0 0 0 1 0.61595588031143156 0.78778065063174119 0 0.78778065063174119 -0.61595588031143167 0 
1 -18.963079599776066 -46.98580914332419 1.4181818181818182 -0.9273237652759776 0.37426011590120523 0 0 -0 -1 -0.37426011590120523 -0.9273237652759776 0 
2 0 0 3 0 0 -1 -0.61595588031143156 -0.78778065063174119 0 0.78778065063174119 -0.61595588031143167 0 49.5
1 -31.20936453559785 -39.915413239054629 1.4181818181818182 -0.78778065063174119 0.61595588031143167 -0 0 -0 -1 -0.61595588031143156 -0.78778065063174119 0 
2 0 0 3 -0 0 -1 0.99021599621263723 -0.13954311464423652 0 0.13954311464423652 0.99021599621263723 0 49.5
1 0 0 0 0 0 1 0.37426011590120523 -0.9273237652759776 0 -0.9273237652759776 -0.37426011590120523 0 
2 50.185100148029314 7.8800839546459382 0 0 0 1 0.13954311464423655 -0.99021599621263723 0 -0.99021599621263723 -0.13954311464423655 0 0.80000000000000004
1 -31.20936453559785 39.915413239054629 1.4181818181818182 0.78778065063174119 0.61595588031143167 0 -0 0 -1 -0.61595588031143156 0.78778065063174119 0 
2 0 0 3 0 -0 -1 -0.37426011590120523 0.9273237652759776 0 -0.9273237652759776 -0.37426011590120523 0 49.5
1 -18.963079599776066 46.98580914332419 1.4181818181818182 0.9273237652759776 0.37426011590120523 -0 -0 0 -1 -0.37426011590120523 0.9273237652759776 0 
2 0 0 -1 0 0 1 1 0 -0 -0 1 0 48
1 0 0 3 0 0 1 1 0 -0 -0 1 0 
1 0 0 1.2 0 0 1 0.99021599621263723 -0.13954311464423652 0 0.13954311464423652 0.99021599621263723 0 
2 -18.268197185337122 -47.40161359698255 0 0 0 1 0.35961018081371149 0.93310262986186565 -0 -0.93310262986186565 0.35961018081371149 0 0.80000000000000004
2 -31.916902962692173 -39.521529642336617 0 0 0 1 0.62828549139156431 0.77798286697514152 -0 0.77798286697514152 -0.62828549139156431 -0 0.80000000000000004
1 0 0 0 0 0 1 0.61595588031143156 0.78778065063174119 0 0.78778065063174119 -0.61595588031143167 0 
2 -31.916902962692173 39.521529642336617 0 0 0 1 0.62828549139157663 -0.77798286697513142 0 0.77798286697513153 0.62828549139157674 -0 0.80000000000000004
2 -18.268197185337122 47.40161359698255 0 0 0 1 0.35961018081372603 -0.93310262986185999 0 -0.93310262986185999 -0.35961018081372603 0 0.80000000000000004
1 0 0 0 0 0 1 0.37426011590120523 -0.9273237652759776 0 -0.9273237652759776 -0.37426011590120523 0 
1 0 0 1.2000000000000002 0 0 1 1 0 -0 -0 1 0 
1 0 0 3 0 0 1 -0.61595588031143156 -0.78778065063174119 0 0.78778065063174119 -0.61595588031143167 0 
1 0 0 3 0 0 1 -0.37426011590120523 0.9273237652759776 0 -0.9273237652759776 -0.37426011590120523 0 
2 -8.659739592076221e-15 -39 -1 0 0 1 -2.2204460492503131e-16 -1 0 1 -2.2204460492503131e-16 0 2.25
2 0 0 -1 0 0 1 1 0 -0 -0 1 0 20
2 4.3298697960381105e-15 39 -1 0 0 1 1.1102230246251565e-16 1 0 -1 1.1102230246251565e-16 0 2.25
2 0 0 1.2 0 0 1 -0.61595588031143156 -0.78778065063174119 0 0.78778065063174119 -0.61595588031143167 0 51.5
1 0 0 1.2 0 0 1 -0.61595588031143156 -0.78778065063174119 0 0.78778065063174119 -0.61595588031143167 0 
2 0 0 0 0 0 1 -0.61595588031143156 -0.78778065063174119 0 0.78778065063174119 -0.61595588031143167 0 52
2 0 0 1.2 0 0 1 -0.37426011590120523 0.9273237652759776 0 -0.9273237652759776 -0.37426011590120523 0 51.5
1 0 0 1.2 0 0 1 -0.37426011590120523 0.9273237652759776 0 -0.9273237652759776 -0.37426011590120523 0 
2 0 0 0 0 0 1 -0.37426011590120523 0.9273237652759776 0 -0.9273237652759776 -0.37426011590120523 0 52
2 -8.659739592076221e-15 -39 -1 0 0 1 -2.2204460492503131e-16 -1 0 1 -2.2204460492503131e-16 0 4.5
2 0 0 -1 0 0 1 1 0 -0 -0 1 0 30
2 4.3298697960381105e-15 39 -1 0 0 1 1.1102230246251565e-16 1 0 -1 1.1102230246251565e-16 0 4.5
1 -8.659739592076221e-15 -39 2 0 0 1 -2.2204460492503131e-16 -1 0 1 -2.2204460492503131e-16 0 
1 4.3298697960381105e-15 39 2 0 0 1 1.1102230246251565e-16 1 0 -1 1.1102230246251565e-16 0 
2 -8.659739592076221e-15 -39 0 0 0 1 -2.2204460492503131e-16 -1 0 1 -2.2204460492503131e-16 0 4.0999999999999996
2 4.3298697960381105e-15 39 0 0 0 1 1.1102230246251565e-16 1 0 -1 1.1102230246251565e-16 0 4.0999999999999996
1 -8.659739592076221e-15 -39 0 0 0 1 -2.2204460492503131e-16 -1 0 1 -2.2204460492503131e-16 0 
1 4.3298697960381105e-15 39 0 0 0 1 1.1102230246251565e-16 1 0 -1 1.1102230246251565e-16 0 
Triangulations 0

TShapes 371
Ve
1e-06
50.2967346397447 -7.08791115767583 0
0 0

0101101
*
Ve
1e-07
50.9961238049508 -7.18647040417818 0
0 0

0101101
*
Ed
 1e-07 1 1 0
1  1 0 1.29370039680118 2
2  1 1 0 1.29370039680118 2
2  2 2 0 1.29370039680118 2
0

0101000
+371 0 -370 0 *
Ve
1e-06
49.5107998106317 -6.97715573221288 0
0 0

0101101
*
Ed
 1e-06 1 1 0
1  2 0 0.500000000000001 1.29370039680118
2  1 1 0 0.500000000000001 1.29370039680118
2  3 3 0 0.500000000000001 1.29370039680118
0

0101000
+368 0 -371 0 *
Ve
1e-07
50.9961238049508 7.18647040417818 0
0 0

0101101
*
Ed
 1e-07 1 1 0
1  3 0 0 0.28
4 C2 1 0 4 0
2  4 1 0 0 0.28
0

0101000
+370 0 -366 0 *
Ve
1e-07
50 -1.22464679914735e-14 0
0 0

0101101
*
Ed
 1e-07 1 1 0
1  4 0 6.14318530717957 6.28318530717959
2  5 5 0 6.14318530717957 6.28318530717959
2  6 3 0 6.14318530717957 6.28318530717959
2  7 1 0 6.14318530717957 6.28318530717959
0

0101000
+368 0 -364 0 *
Ve
1e-06
50.2967346397447 7.08791115767583 0
0 0

0101101
*
Ed
 1e-07 1 1 0
1  5 0 1.29370039680118 2
2  8 1 0 1.29370039680118 2
2  9 6 0 1.29370039680118 2
0

0101000
+362 0 -366 0 *
Ve
1e-06
49.5107998106317 6.97715573221286 0
0 0

0101101
*
Ed
 1e-07 1 1 0
1  4 0 0 0.140000000000021
2  5 5 0 0 0.140000000000021
2  6 3 0 0 0.140000000000021
2  10 1 0 0 0.140000000000021
0

0101000
+364 0 -360 0 *
Ed
 1e-06 1 1 0
1  6 0 0.499999999999998 1.29370039680118
2  8 1 0 0.499999999999998 1.29370039680118
2  11 3 0 0.499999999999998 1.29370039680118
0

0101000
+360 0 -362 0 *
Wi

0101100
-369 0 -367 0 -365 0 +363 0 +361 0 +359 0 +358 0 *
Fa
0  1e-07 1 0

0101000
+357 0 *
Ve
1e-06
50.2967346397447 -7.08791115767583 3
0 0

0101101
*
Ve
1e-07
50.9961238049508 -7.18647040417818 3
0 0

0101101
*
Ed
 1e-07 1 1 0
1  7 0 0 0.706299603198819
2  12 7 0 0 0.706299603198819
2  13 2 0 0 0.706299603198819
0

0101000
-355 0 +354 0 *
Ed
 1e-07 1 1 0
1  8 0 -0 3
2  14 8 0 -0 3
2  15 2 0 -0 3
4 G1 8 0 2 0
0

0101000
+371 0 -355 0 *
Ve
1e-07
50.9961238049508 -7.18647040417818 1.2
0 0

0101101
*
Ed
 1e-07 1 1 0
1  9 0 0 1.8
2  16 9 0 0 1.8
2  17 2 0 0 1.8
0

0101000
+351 0 -354 0 *
Ve
1e-07
51.4912318030571 -7.2562419615003 1.2
0 0

0101101
*
Ed
 1e-07 1 1 0
1  10 0 0 0.5
2  18 2 0 0 0.5
0

0101000
+349 0 -351 0 *
Ve
1e-07
51.4912318030571 -7.2562419615003 0
0 0

0101101
*
Ed
 1e-07 1 1 0
1  11 0 0 0.5
2  19 2 0 0 0.5
0

0101000
+370 0 -347 0 *
Ed
 1e-07 1 1 0
1  12 0 0 1.2
2  20 10 0 0 1.2
2  21 2 0 0 1.2
0

0101000
+347 0 -349 0 *
Wi

0101100
+353 0 -352 0 +350 0 +369 0 +348 0 +346 0 +345 0 *
Fa
0  1e-07 2 0

0101000
+344 0 *
Ve
1e-06
-17.9805090406862 -46.6551314930931 0
0 0

0101101
*
Ve
1e-07
49.3947836102651 -7.75598814433654 0
0 0

0101101
*
Ed
 1e-07 1 1 0
1  4 0 4.34453888727504 6.12743662469093
2  5 5 0 4.34453888727504 6.12743662469093
2  6 3 0 4.34453888727504 6.12743662469093
0

0101000
+342 0 -341 0 *
Ve
1e-06
-18.7130057950609 -46.3661882637986 0
0 0

0101101
*
Ed
 1e-06 1 1 0
1  13 0 4.32879020478638 4.34453888727504
2  6 3 0 4.32879020478638 4.34453888727504
2  22 11 0 4.32879020478638 4.34453888727504
0

0101000
+339 0 -342 0 *
Ed
 1e-07 1 1 0
1  14 0 3.00159265358979 4.55664029789603
2  23 8 0 3.00159265358979 4.55664029789603
2  24 3 0 3.00159265358979 4.55664029789603
0

0101000
+371 0 -341 0 *
Ve
1e-07
-18.5258757371097 -45.9025263811609 0
0 0

0101101
*
Ed
 1e-07 1 1 0
1  15 0 0 0.500000000000008
2  25 12 0 0 0.500000000000008
2  26 11 0 0 0.500000000000008
2  27 3 0 0 0.500000000000008
0

0101000
+336 0 -339 0 *
Ve
1e-07
-30.4898160754159 -38.9951422062712 0
0 0

0101101
*
Ed
 1e-07 1 1 0
1  16 0 0 0.28
2  28 13 0 0 0.28
2  29 11 0 0 0.28
2  30 3 0 0 0.28
0

0101000
+334 0 -336 0 *
Ve
1e-07
49.0156918125255 -6.90738417488971 0
0 0

0101101
*
Ed
 1e-07 1 1 0
1  1 0 0 0.500000000000001
2  1 1 0 0 0.500000000000001
2  2 2 0 0 0.500000000000001
2  31 3 0 0 0.500000000000001
0

0101000
+332 0 -368 0 *
Ve
1e-06
-30.797794015572 -39.3890325315867 0
0 0

0101101
*
Ed
 1e-07 1 1 0
1  17 0 0 0.500000000000001
2  32 14 0 0 0.500000000000001
2  33 11 0 0 0.500000000000001
2  34 3 0 0 0.500000000000001
0

0101000
+334 0 -330 0 *
Ve
1e-07
49.0156918125255 6.90738417488971 0
0 0

0101101
*
Ed
 1e-07 1 1 0
1  18 0 0 0.28
2  35 15 0 0 0.28
2  36 1 0 0 0.28
2  37 3 0 0 0.28
0

0101000
+332 0 -328 0 *
Ve
1e-06
-31.4142745695789 -38.8991433487565 0
0 0

0101101
*
Ed
 1e-06 1 1 0
1  19 0 4.03304152229774 4.04879020478638
2  6 3 0 4.03304152229774 4.04879020478638
2  38 11 0 4.03304152229774 4.04879020478638
0

0101000
+326 0 -330 0 *
Ed
 1e-07 1 1 0
1  5 0 0 0.499999999999998
2  8 1 0 0 0.499999999999998
2  9 6 0 0 0.499999999999998
2  39 3 0 0 0.499999999999998
0

0101000
+328 0 -360 0 *
Ve
1e-06
-31.4142745695789 38.8991433487565 0
0 0

0101101
*
Ed
 1e-07 1 1 0
1  4 0 2.25014378488185 4.03304152229774
2  5 5 0 2.25014378488185 4.03304152229774
2  6 3 0 2.25014378488185 4.03304152229774
0

0101000
+323 0 -326 0 *
Ve
1e-06
-30.797794015572 39.3890325315867 0
0 0

0101101
*
Ed
 1e-06 1 1 0
1  20 0 2.23439510239321 2.25014378488185
2  6 3 0 2.23439510239321 2.25014378488185
2  40 16 0 2.23439510239321 2.25014378488185
0

0101000
+321 0 -323 0 *
Ve
1e-07
49.3947836102651 7.75598814433655 0
0 0

0101101
*
Ed
 1e-07 1 1 0
1  21 0 6.14318530717958 7.69823295148583
2  41 17 0 6.14318530717958 7.69823295148583
2  42 3 0 6.14318530717958 7.69823295148583
0

0101000
+362 0 -319 0 *
Ve
1e-07
-30.4898160754159 38.9951422062712 0
0 0

0101101
*
Ed
 1e-07 1 1 0
1  22 0 0 0.500000000000004
2  43 18 0 0 0.500000000000004
2  44 16 0 0 0.500000000000004
2  45 3 0 0 0.500000000000004
0

0101000
+317 0 -321 0 *
Ve
1e-06
-17.9805090406861 46.6551314930931 0
0 0

0101101
*
Ed
 1e-07 1 1 0
1  4 0 0.155748682488654 1.93864641990454
2  5 5 0 0.155748682488654 1.93864641990454
2  6 3 0 0.155748682488654 1.93864641990454
0

0101000
+319 0 -315 0 *
Ve
1e-07
-18.5258757371097 45.9025263811609 0
0 0

0101101
*
Ed
 1e-07 1 1 0
1  23 0 0 0.28
2  46 19 0 0 0.28
2  47 16 0 0 0.28
2  48 3 0 0 0.28
0

0101000
+313 0 -317 0 *
Ve
1e-06
-18.7130057950609 46.3661882637986 0
0 0

0101101
*
Ed
 1e-06 1 1 0
1  24 0 1.93864641990454 1.95439510239321
2  6 3 0 1.93864641990454 1.95439510239321
2  49 16 0 1.93864641990454 1.95439510239321
0

0101000
+315 0 -311 0 *
Ed
 1e-07 1 1 0
1  25 0 0 0.5
2  50 20 0 0 0.5
2  51 16 0 0 0.5
2  52 3 0 0 0.5
0

0101000
+313 0 -311 0 *
Wi

0101100
+340 0 +338 0 -337 0 +335 0 -367 0 +333 0 -331 0 -329 0 +327 0 +325 0 
+324 0 +322 0 +358 0 +320 0 +318 0 +316 0 +314 0 +312 0 +310 0 -309 0 
*
Ve
1.00000011756609e-07
48 -1.17566092718146e-14 0
0 0

0101101
*
Ed
 1e-07 1 1 0
1  26 0 0 6.28318530717959
2  53 3 0 0 6.28318530717959
2  54 21 0 0 6.28318530717959
0

0101100
+307 0 -307 0 *
Wi

0101100
-306 0 *
Fa
0  1e-07 3 0

0101000
+308 0 +305 0 *
Ve
1e-07
51.4912318030571 7.2562419615003 0
0 0

0101101
*
Ed
 1e-07 1 1 0
1  27 0 0 0.28
2  55 10 0 0 0.28
0

0101000
+347 0 -303 0 *
Ed
 1e-07 1 1 0
1  28 0 0 0.5
2  56 6 0 0 0.5
0

0101000
+366 0 -303 0 *
Wi

0101100
+365 0 -302 0 -346 0 +301 0 *
Fa
0  1e-07 4 0

0101000
+300 0 *
Wi

0101100
+363 0 +331 0 -327 0 -324 0 +359 0 *
Fa
0  1e-07 3 0

0101000
+298 0 *
Ve
1e-06
50.2967346397447 7.08791115767583 3
0 0

0101101
*
Ve
1e-07
50.9961238049508 7.18647040417818 3
0 0

0101101
*
Ed
 1e-07 1 1 0
1  29 0 0 0.706299603198812
2  57 7 0 0 0.706299603198812
2  58 6 0 0 0.706299603198812
0

0101000
-296 0 +295 0 *
Ed
 1e-07 1 1 0
1  30 0 -0 3
2  59 17 0 -0 3
2  60 6 0 -0 3
4 G1 17 0 6 0
0

0101000
+362 0 -296 0 *
Ve
1e-07
50.9961238049508 7.18647040417818 1.2
0 0

0101101
*
Ed
 1e-07 1 1 0
1  31 0 0 1.8
2  61 9 0 0 1.8
2  62 6 0 0 1.8
0

0101000
+292 0 -295 0 *
Ve
1e-07
51.4912318030571 7.2562419615003 1.2
0 0

0101101
*
Ed
 1e-07 1 1 0
1  32 0 0 0.5
2  63 6 0 0 0.5
0

0101000
+290 0 -292 0 *
Ed
 1e-07 1 1 0
1  33 0 0 1.2
2  64 10 0 0 1.2
2  65 6 0 0 1.2
0

0101000
+303 0 -290 0 *
Wi

0101100
+294 0 -293 0 +291 0 +361 0 +289 0 +301 0 +288 0 *
Fa
0  1e-07 6 0

0101000
+287 0 *
Ve
1e-06
49.5107998106317 -6.97715573221288 3
0 0

0101101
*
Ed
 1e-06 1 1 0
1  34 0 0.706299603198817 1.5
2  12 7 0 0.706299603198817 1.5
2  66 22 0 0.706299603198817 1.5
0

0101000
+355 0 -285 0 *
Ed
 1e-07 1 1 0
1  35 0 0 0.28
2  67 9 0 0 0.28
2  68 7 0 0 0.28
0

0101000
+354 0 -295 0 *
Ve
1e-07
50 -1.22464679914735e-14 3
0 0

0101101
*
Ed
 1e-07 1 1 0
1  36 0 6.14318530717957 6.28318530717959
2  69 5 0 6.14318530717957 6.28318530717959
2  70 22 0 6.14318530717957 6.28318530717959
2  71 7 0 6.14318530717957 6.28318530717959
0

0101000
+285 0 -282 0 *
Ve
1e-06
49.5107998106317 6.97715573221286 3
0 0

0101101
*
Ed
 1e-07 1 1 0
1  36 0 0 0.140000000000021
2  69 5 0 0 0.140000000000021
2  70 22 0 0 0.140000000000021
2  72 7 0 0 0.140000000000021
0

0101000
+282 0 -280 0 *
Ed
 1e-06 1 1 0
1  37 0 0.70629960319881 1.49999999999999
2  57 7 0 0.70629960319881 1.49999999999999
2  73 22 0 0.70629960319881 1.49999999999999
0

0101000
+296 0 -280 0 *
Wi

0101100
-353 0 -284 0 +283 0 -281 0 +294 0 -279 0 +278 0 *
Fa
0  1e-07 7 0

0101000
+277 0 *
Ve
1e-07
49.3947836102651 -7.75598814433654 3
0 0

0101101
*
Ed
 1e-07 1 1 0
1  38 0 0 3
2  74 8 0 0 3
2  75 5 0 0 3
4 G1 8 0 5 0
0

0101000
+341 0 -275 0 *
Ed
 1e-07 1 1 0
1  39 0 3.00159265358979 4.55664029789603
2  76 8 0 3.00159265358979 4.55664029789603
2  77 22 0 3.00159265358979 4.55664029789603
0

0101000
+355 0 -275 0 *
Wi

0101100
+337 0 -352 0 +274 0 -273 0 *
Fa
0  0 8 0

0101000
+272 0 *
Ed
 1e-07 1 1 0
1  40 0 0 0.28
2  78 9 0 0 0.28
0

0101000
+351 0 -292 0 *
Wi

0101100
+270 0 -283 0 -350 0 +291 0 *
Fa
0  1e-07 9 0

0101000
+269 0 *
Ed
 1e-07 1 1 0
1  41 0 0 0.28
2  79 10 0 0 0.28
0

0101000
+349 0 -290 0 *
Wi

0101100
+267 0 -270 0 -348 0 +289 0 *
Fa
0  1e-07 23 0

0101000
+266 0 *
Wi

0101100
+302 0 -267 0 -345 0 +288 0 *
Fa
0  1e-07 10 0

0101000
+264 0 *
Ve
1e-06
-17.9805090406862 -46.6551314930931 3
0 0

0101101
*
Ed
 1e-07 1 1 0
1  42 0 0 3
2  80 24 0 0 3
2  81 5 0 0 3
4 G1 24 0 5 0
0

0101000
+342 0 -262 0 *
Ed
 1e-07 1 1 0
1  36 0 4.34453888727504 6.12743662469093
2  69 5 0 4.34453888727504 6.12743662469093
2  70 22 0 4.34453888727504 6.12743662469093
0

0101000
+262 0 -275 0 *
Wi

0101100
+340 0 -261 0 +274 0 -260 0 *
Fa
0  1e-07 5 0

0101000
+259 0 *
Ve
1e-07
-31.2866784421868 -40.0142943465858 0
0 0

0101101
*
Ve
1e-07
-31.7217278360387 -40.5707035075347 0
0 0

0101101
*
Ed
 1e-07 1 1 0
1  17 0 1.29370039680119 2
2  32 14 0 1.29370039680119 2
2  33 11 0 1.29370039680119 2
0

0101000
+257 0 -256 0 *
Ed
 1e-07 1 1 0
1  43 0 3.82094011167673 5.375987755983
2  82 25 0 3.82094011167673 5.375987755983
2  83 11 0 3.82094011167673 5.375987755983
0

0101000
+326 0 -257 0 *
Ve
1e-07
-19.2743959689121 -47.7571739117128 0
0 0

0101101
*
Ed
 1e-07 1 1 0
1  44 0 0 0.28
4 C2 11 0 26 0
2  84 11 0 0 0.28
2  85 26 0 0 0.28
0

0101000
+256 0 -253 0 *
Ve
1e-07
-19.0100561975579 -47.1022055042616 0
0 0

0101101
*
Ed
 1e-07 1 1 0
1  15 0 1.29370039680118 2
2  25 12 0 1.29370039680118 2
2  26 11 0 1.29370039680118 2
0

0101000
+251 0 -253 0 *
Ed
 1e-07 1 1 0
1  4 0 4.04879020478638 4.32879020478638
2  5 5 0 4.04879020478638 4.32879020478638
2  6 3 0 4.04879020478638 4.32879020478638
2  86 11 0 4.04879020478638 4.32879020478638
0

0101000
+330 0 -339 0 *
Ed
 1e-07 1 1 0
1  45 0 2.77374256048016 4.32879020478639
2  87 24 0 2.77374256048016 4.32879020478639
2  88 11 0 2.77374256048016 4.32879020478639
0

0101000
+342 0 -251 0 *
Wi

0101100
-255 0 -254 0 -252 0 +325 0 +250 0 +249 0 +248 0 +338 0 *
Fa
0  1e-07 11 0

0101000
+247 0 *
Wi

0101100
+249 0 +329 0 -333 0 -335 0 *
Fa
0  1e-07 3 0

0101000
+245 0 *
Ve
1e-06
-31.4142745695789 38.8991433487565 3
0 0

0101101
*
Ve
1e-06
-31.4142745695789 -38.8991433487565 3
0 0

0101101
*
Ed
 1e-07 1 1 0
1  36 0 2.25014378488185 4.03304152229774
2  69 5 0 2.25014378488185 4.03304152229774
2  70 22 0 2.25014378488185 4.03304152229774
0

0101000
+243 0 -242 0 *
Ed
 1e-07 1 1 0
1  46 0 0 3
2  89 27 0 0 3
2  90 5 0 0 3
4 G1 27 0 5 0
0

0101000
+323 0 -243 0 *
Ed
 1e-07 1 1 0
1  47 0 0 3
2  91 25 0 0 3
2  92 5 0 0 3
4 G1 25 0 5 0
0

0101000
+326 0 -242 0 *
Wi

0101100
-241 0 -240 0 +239 0 +322 0 *
Fa
0  1e-07 5 0

0101000
+238 0 *
Ve
1e-07
-19.0100561975579 47.1022055042616 0
0 0

0101101
*
Ve
1e-07
-19.2743959689121 47.7571739117128 0
0 0

0101101
*
Ed
 1e-07 1 1 0
1  25 0 1.29370039680118 2
2  50 20 0 1.29370039680118 2
2  51 16 0 1.29370039680118 2
0

0101000
+236 0 -235 0 *
Ed
 1e-07 1 1 0
1  48 0 5.91533521406994 7.47038285837617
2  93 28 0 5.91533521406994 7.47038285837617
2  94 16 0 5.91533521406994 7.47038285837617
0

0101000
+315 0 -236 0 *
Ve
1e-07
-31.7217278360387 40.5707035075347 0
0 0

0101101
*
Ed
 1e-07 1 1 0
1  49 0 0 0.28
4 C2 16 0 29 0
2  95 16 0 0 0.28
2  96 29 0 0 0.28
0

0101000
+235 0 -232 0 *
Ve
1e-07
-31.2866784421868 40.0142943465858 0
0 0

0101101
*
Ed
 1e-07 1 1 0
1  22 0 1.29370039680119 2
2  43 18 0 1.29370039680119 2
2  44 16 0 1.29370039680119 2
0

0101000
+230 0 -232 0 *
Ed
 1e-07 1 1 0
1  4 0 1.95439510239321 2.23439510239321
2  5 5 0 1.95439510239321 2.23439510239321
2  6 3 0 1.95439510239321 2.23439510239321
2  97 16 0 1.95439510239321 2.23439510239321
0

0101000
+311 0 -321 0 *
Ed
 1e-07 1 1 0
1  50 0 0.679347458086954 2.23439510239321
2  98 27 0 0.679347458086954 2.23439510239321
2  99 16 0 0.679347458086954 2.23439510239321
0

0101000
+323 0 -230 0 *
Wi

0101100
-234 0 -233 0 -231 0 +310 0 +229 0 +228 0 +227 0 +320 0 *
Fa
0  1e-07 16 0

0101000
+226 0 *
Ve
1e-07
49.3947836102651 7.75598814433655 3
0 0

0101101
*
Ed
 1e-07 1 1 0
1  51 0 0 3
2  100 17 0 0 3
2  101 5 0 0 3
4 G1 17 0 5 0
0

0101000
+319 0 -224 0 *
Ed
 1e-07 1 1 0
1  52 0 6.14318530717958 7.69823295148583
2  102 17 0 6.14318530717958 7.69823295148583
2  103 22 0 6.14318530717958 7.69823295148583
0

0101000
+296 0 -224 0 *
Wi

0101100
+318 0 -293 0 +223 0 -222 0 *
Fa
0  0 17 0

0101000
+221 0 *
Wi

0101100
+309 0 -312 0 -316 0 +228 0 *
Fa
0  1e-07 3 0

0101000
+219 0 *
Ve
1e-06
-17.9805090406861 46.6551314930931 3
0 0

0101101
*
Ed
 1e-07 1 1 0
1  36 0 0.155748682488654 1.93864641990454
2  69 5 0 0.155748682488654 1.93864641990454
2  70 22 0 0.155748682488654 1.93864641990454
0

0101000
+224 0 -217 0 *
Ed
 1e-07 1 1 0
1  53 0 0 3
2  104 28 0 0 3
2  105 5 0 0 3
4 G1 28 0 5 0
0

0101000
+315 0 -217 0 *
Wi

0101100
-216 0 -223 0 +215 0 +314 0 *
Fa
0  1e-07 5 0

0101000
+214 0 *
Ve
1e-07
48 -1.17566092718146e-14 1.2
0 0

0101101
*
Ed
 1e-07 1 1 0
1  54 0 1 2.2
3  106 107CN 21 0 1 2.2
0

0101000
+307 0 -212 0 *
Ed
 1e-07 1 1 0
1  55 0 0 6.28318530717959
2  108 21 0 0 6.28318530717959
2  109 30 0 0 6.28318530717959
0

0101000
+212 0 -212 0 *
Wi

0101100
+211 0 +306 0 -211 0 -210 0 *
Fa
0  1e-07 21 0

0101000
+209 0 *
Ve
1e-06
-18.7130057950609 -46.3661882637986 3
0 0

0101101
*
Ed
 1e-06 1 1 0
1  56 0 4.32879020478638 4.34453888727504
2  70 22 0 4.32879020478638 4.34453888727504
2  110 31 0 4.32879020478638 4.34453888727504
0

0101000
+207 0 -262 0 *
Ve
1e-07
-18.5258757371097 -45.9025263811609 3
0 0

0101101
*
Ed
 1e-07 1 1 0
1  57 0 1.49999999999998 2
2  111 31 0 1.49999999999998 2
2  112 12 0 1.49999999999998 2
2  113 22 0 1.49999999999998 2
0

0101000
+207 0 -205 0 *
Ve
1e-07
-30.4898160754159 -38.9951422062712 3
0 0

0101101
*
Ed
 1e-07 1 1 0
1  58 0 0 0.28
2  114 13 0 0 0.28
2  115 31 0 0 0.28
2  116 22 0 0 0.28
0

0101000
+203 0 -205 0 *
Ve
1e-07
49.0156918125255 -6.90738417488971 3
0 0

0101101
*
Ed
 1e-07 1 1 0
1  7 0 1.5 2
2  12 7 0 1.5 2
2  13 2 0 1.5 2
2  117 22 0 1.5 2
0

0101000
+285 0 -201 0 *
Ve
1e-06
-30.797794015572 -39.3890325315867 3
0 0

0101101
*
Ed
 1e-07 1 1 0
1  59 0 1.49999999999999 2
2  118 31 0 1.49999999999999 2
2  119 14 0 1.49999999999999 2
2  120 22 0 1.49999999999999 2
0

0101000
+199 0 -203 0 *
Ve
1e-07
49.0156918125255 6.90738417488971 3
0 0

0101101
*
Ed
 1e-07 1 1 0
1  60 0 0 0.28
2  121 15 0 0 0.28
2  122 7 0 0 0.28
2  123 22 0 0 0.28
0

0101000
+201 0 -197 0 *
Ed
 1e-06 1 1 0
1  61 0 4.03304152229774 4.04879020478638
2  70 22 0 4.03304152229774 4.04879020478638
2  124 31 0 4.03304152229774 4.04879020478638
0

0101000
+242 0 -199 0 *
Ed
 1e-07 1 1 0
1  29 0 1.49999999999999 2
2  57 7 0 1.49999999999999 2
2  58 6 0 1.49999999999999 2
2  125 22 0 1.49999999999999 2
0

0101000
+280 0 -197 0 *
Ve
1e-06
-30.797794015572 39.3890325315867 3
0 0

0101101
*
Ed
 1e-06 1 1 0
1  62 0 2.23439510239321 2.25014378488185
2  70 22 0 2.23439510239321 2.25014378488185
2  126 32 0 2.23439510239321 2.25014378488185
0

0101000
+193 0 -243 0 *
Ve
1e-07
-30.4898160754159 38.9951422062712 3
0 0

0101101
*
Ed
 1e-07 1 1 0
1  63 0 1.49999999999999 2
2  127 32 0 1.49999999999999 2
2  128 18 0 1.49999999999999 2
2  129 22 0 1.49999999999999 2
0

0101000
+193 0 -191 0 *
Ve
1e-07
-18.5258757371097 45.9025263811609 3
0 0

0101101
*
Ed
 1e-07 1 1 0
1  64 0 0 0.28
2  130 19 0 0 0.28
2  131 32 0 0 0.28
2  132 22 0 0 0.28
0

0101000
+189 0 -191 0 *
Ve
1e-06
-18.7130057950609 46.3661882637986 3
0 0

0101101
*
Ed
 1e-06 1 1 0
1  65 0 1.93864641990454 1.95439510239321
2  70 22 0 1.93864641990454 1.95439510239321
2  133 32 0 1.93864641990454 1.95439510239321
0

0101000
+217 0 -187 0 *
Ed
 1e-07 1 1 0
1  66 0 1.49999999999999 2
2  134 32 0 1.49999999999999 2
2  135 20 0 1.49999999999999 2
2  136 22 0 1.49999999999999 2
0

0101000
+187 0 -189 0 *
Wi

0101100
+260 0 +206 0 -273 0 -204 0 +284 0 +202 0 +200 0 +198 0 +196 0 +195 0 
-194 0 +241 0 -278 0 +192 0 +222 0 -190 0 +216 0 +188 0 +186 0 +185 0 
*
Ve
1.00000000551091e-07
-9.71043101277385e-15 -41.25 3
0 0

0101101
*
Ed
 1e-07 1 1 0
1  67 0 0 6.28318530717959
2  137 22 0 0 6.28318530717959
2  138 33 0 0 6.28318530717959
0

0101100
+183 0 -183 0 *
Wi

0101100
-182 0 *
Ve
1.00000004898587e-07
20 -4.89858719658941e-15 3
0 0

0101101
*
Ed
 1e-07 1 1 0
1  68 0 0 6.28318530717959
2  139 22 0 0 6.28318530717959
2  140 34 0 0 6.28318530717959
0

0101100
+180 0 -180 0 *
Wi

0101100
-179 0 *
Ve
1.00000000551091e-07
5.13076103619508e-15 41.25 3
0 0

0101101
*
Ed
 1e-07 1 1 0
1  69 0 0 6.28318530717959
2  141 22 0 0 6.28318530717959
2  142 35 0 0 6.28318530717959
0

0101100
+177 0 -177 0 *
Wi

0101100
-176 0 *
Fa
0  1e-07 22 0

0101000
+184 0 +181 0 +178 0 +175 0 *
Wi

0101100
+281 0 -200 0 -196 0 +194 0 +279 0 *
Fa
0  1e-07 22 0

0101000
+173 0 *
Ve
1e-07
-19.0100561975579 -47.1022055042616 3
0 0

0101101
*
Ed
 1e-07 1 1 0
1  70 0 -0 3
2  143 24 0 -0 3
2  144 12 0 -0 3
4 G1 24 0 12 0
0

0101000
+251 0 -171 0 *
Ed
 1e-07 1 1 0
1  71 0 2.77374256048016 4.3287902047864
2  145 24 0 2.77374256048016 4.3287902047864
2  146 31 0 2.77374256048016 4.3287902047864
0

0101000
+262 0 -171 0 *
Wi

0101100
+248 0 -261 0 +170 0 -169 0 *
Fa
0  0 24 0

0101000
+168 0 *
Ve
1e-07
-31.2866784421868 -40.0142943465858 3
0 0

0101101
*
Ve
1e-07
-31.7217278360387 -40.5707035075347 3
0 0

0101101
*
Ed
 1e-07 1 1 0
1  59 0 0 0.706299603198809
2  118 31 0 0 0.706299603198809
2  119 14 0 0 0.706299603198809
0

0101000
-166 0 +165 0 *
Ed
 1e-07 1 1 0
1  72 0 -0 3
2  147 25 0 -0 3
2  148 14 0 -0 3
4 G1 25 0 14 0
0

0101000
+257 0 -166 0 *
Ve
1e-07
-31.7217278360387 -40.5707035075347 1.2
0 0

0101101
*
Ed
 1e-07 1 1 0
1  73 0 0 1.8
2  149 36 0 0 1.8
2  150 14 0 0 1.8
0

0101000
+162 0 -165 0 *
Ve
1e-07
-32.0297057761944 -40.9645938328505 1.2
0 0

0101101
*
Ed
 1e-07 1 1 0
1  74 0 0 0.5
2  151 14 0 0 0.5
2  152 37 0 0 0.5
0

0101000
+160 0 -162 0 *
Ve
1e-07
-32.0297057761944 -40.9645938328505 0
0 0

0101101
*
Ed
 1e-07 1 1 0
1  75 0 0 0.5
2  153 14 0 0 0.5
2  154 26 0 0 0.5
0

0101000
+256 0 -158 0 *
Ed
 1e-07 1 1 0
1  76 0 0 1.2
2  155 38 0 0 1.2
2  156 14 0 0 1.2
0

0101000
+158 0 -160 0 *
Wi

0101100
+164 0 -163 0 +161 0 +255 0 +159 0 +157 0 +156 0 *
Fa
0  1e-07 14 0

0101000
+155 0 *
Ed
 1e-07 1 1 0
1  77 0 3.82094011167673 5.375987755983
2  157 25 0 3.82094011167673 5.375987755983
2  158 31 0 3.82094011167673 5.375987755983
0

0101000
+242 0 -166 0 *
Wi

0101100
+254 0 -239 0 +163 0 -153 0 *
Fa
0  0 25 0

0101000
+152 0 *
Ve
1e-07
-19.4615260268627 -48.2208357943508 0
0 0

0101101
*
Ed
 1e-07 1 1 0
1  78 0 0 0.28
2  159 38 0 0 0.28
2  160 26 0 0 0.28
0

0101000
+158 0 -150 0 *
Ed
 1e-07 1 1 0
1  79 0 0 0.5
2  161 12 0 0 0.5
2  162 26 0 0 0.5
0

0101000
+253 0 -150 0 *
Wi

0101100
+252 0 -149 0 -157 0 +148 0 *
Fa
0  1e-07 26 0

0101000
+147 0 *
Ve
1e-07
-19.2743959689121 -47.7571739117128 3
0 0

0101101
*
Ed
 1e-07 1 1 0
1  57 0 0 0.706299603198807
2  111 31 0 0 0.706299603198807
2  112 12 0 0 0.706299603198807
0

0101000
-171 0 +145 0 *
Ve
1e-07
-19.2743959689121 -47.7571739117128 1.2
0 0

0101101
*
Ed
 1e-07 1 1 0
1  80 0 0 1.8
2  163 36 0 0 1.8
2  164 12 0 0 1.8
0

0101000
+143 0 -145 0 *
Ve
1e-07
-19.4615260268627 -48.2208357943508 1.2
0 0

0101101
*
Ed
 1e-07 1 1 0
1  81 0 0 0.5
2  165 12 0 0 0.5
2  166 37 0 0 0.5
0

0101000
+141 0 -143 0 *
Ed
 1e-07 1 1 0
1  82 0 0 1.2
2  167 38 0 0 1.2
2  168 12 0 0 1.2
0

0101000
+150 0 -141 0 *
Wi

0101100
+144 0 -170 0 +142 0 +250 0 +140 0 +148 0 +139 0 *
Fa
0  1e-07 12 0

0101000
+138 0 *
Ve
1e-07
-31.2866784421868 40.0142943465858 3
0 0

0101101
*
Ed
 1e-07 1 1 0
1  83 0 -0 3
2  169 27 0 -0 3
2  170 18 0 -0 3
4 G1 27 0 18 0
0

0101000
+230 0 -136 0 *
Ed
 1e-07 1 1 0
1  84 0 0.679347458086954 2.2343951023932
2  171 27 0 0.679347458086954 2.2343951023932
2  172 32 0 0.679347458086954 2.2343951023932
0

0101000
+243 0 -136 0 *
Wi

0101100
+227 0 -240 0 +135 0 -134 0 *
Fa
0  0 27 0

0101000
+133 0 *
Ve
1e-07
-19.0100561975579 47.1022055042616 3
0 0

0101101
*
Ve
1e-07
-19.2743959689121 47.7571739117128 3
0 0

0101101
*
Ed
 1e-07 1 1 0
1  66 0 0 0.706299603198815
2  134 32 0 0 0.706299603198815
2  135 20 0 0 0.706299603198815
0

0101000
-131 0 +130 0 *
Ed
 1e-07 1 1 0
1  85 0 -0 3
2  173 28 0 -0 3
2  174 20 0 -0 3
4 G1 28 0 20 0
0

0101000
+236 0 -131 0 *
Ve
1e-07
-19.2743959689121 47.7571739117128 1.2
0 0

0101101
*
Ed
 1e-07 1 1 0
1  86 0 0 1.8
2  175 39 0 0 1.8
2  176 20 0 0 1.8
0

0101000
+127 0 -130 0 *
Ve
1e-07
-19.4615260268627 48.2208357943508 1.2
0 0

0101101
*
Ed
 1e-07 1 1 0
1  87 0 0 0.5
2  177 20 0 0 0.5
2  178 40 0 0 0.5
0

0101000
+125 0 -127 0 *
Ve
1e-07
-19.4615260268627 48.2208357943508 0
0 0

0101101
*
Ed
 1e-07 1 1 0
1  88 0 0 0.5
2  179 20 0 0 0.5
2  180 29 0 0 0.5
0

0101000
+235 0 -123 0 *
Ed
 1e-07 1 1 0
1  89 0 0 1.2
2  181 41 0 0 1.2
2  182 20 0 0 1.2
0

0101000
+123 0 -125 0 *
Wi

0101100
+129 0 -128 0 +126 0 +234 0 +124 0 +122 0 +121 0 *
Fa
0  1e-07 20 0

0101000
+120 0 *
Ed
 1e-07 1 1 0
1  90 0 5.91533521406994 7.47038285837618
2  183 28 0 5.91533521406994 7.47038285837618
2  184 32 0 5.91533521406994 7.47038285837618
0

0101000
+217 0 -131 0 *
Wi

0101100
+233 0 -215 0 +128 0 -118 0 *
Fa
0  0 28 0

0101000
+117 0 *
Ve
1e-07
-32.0297057761944 40.9645938328505 0
0 0

0101101
*
Ed
 1e-07 1 1 0
1  91 0 0 0.28
2  185 41 0 0 0.28
2  186 29 0 0 0.28
0

0101000
+123 0 -115 0 *
Ed
 1e-07 1 1 0
1  92 0 0 0.5
2  187 18 0 0 0.5
2  188 29 0 0 0.5
0

0101000
+232 0 -115 0 *
Wi

0101100
+231 0 -114 0 -122 0 +113 0 *
Fa
0  1e-07 29 0

0101000
+112 0 *
Ve
1e-07
-31.7217278360387 40.5707035075347 3
0 0

0101101
*
Ed
 1e-07 1 1 0
1  63 0 0 0.706299603198801
2  127 32 0 0 0.706299603198801
2  128 18 0 0 0.706299603198801
0

0101000
-136 0 +110 0 *
Ve
1e-07
-31.7217278360387 40.5707035075347 1.2
0 0

0101101
*
Ed
 1e-07 1 1 0
1  93 0 0 1.8
2  189 39 0 0 1.8
2  190 18 0 0 1.8
0

0101000
+108 0 -110 0 *
Ve
1e-07
-32.0297057761944 40.9645938328505 1.2
0 0

0101101
*
Ed
 1e-07 1 1 0
1  94 0 0 0.5
2  191 18 0 0 0.5
2  192 40 0 0 0.5
0

0101000
+106 0 -108 0 *
Ed
 1e-07 1 1 0
1  95 0 0 1.2
2  193 41 0 0 1.2
2  194 18 0 0 1.2
0

0101000
+115 0 -106 0 *
Wi

0101100
+109 0 -135 0 +107 0 +229 0 +105 0 +113 0 +104 0 *
Fa
0  1e-07 18 0

0101000
+103 0 *
Wi

0101100
+210 0 *
Ve
1.00000001102182e-07
-1.07611224334715e-14 -43.5 1.2
0 0

0101101
*
Ed
 1e-07 1 1 0
1  96 0 0 6.28318530717959
2  195 30 0 0 6.28318530717959
2  196 42 0 0 6.28318530717959
0

0101100
+100 0 -100 0 *
Wi

0101100
-99 0 *
Ve
1.00000007347881e-07
30 -7.34788079488412e-15 1.2
0 0

0101101
*
Ed
 1e-07 1 1 0
1  97 0 0 6.28318530717959
2  197 30 0 0 6.28318530717959
2  198 43 0 0 6.28318530717959
0

0101100
+97 0 -97 0 *
Wi

0101100
-96 0 *
Ve
1.00000001102182e-07
5.93165227635205e-15 43.5 1.2
0 0

0101101
*
Ed
 1e-07 1 1 0
1  98 0 0 6.28318530717959
2  199 30 0 0 6.28318530717959
2  200 44 0 0 6.28318530717959
0

0101100
+94 0 -94 0 *
Wi

0101100
-93 0 *
Fa
0  1e-07 30 0

0101000
+101 0 +98 0 +95 0 +92 0 *
Ed
 1e-07 1 1 0
1  99 0 0 0.28
2  201 36 0 0 0.28
2  202 31 0 0 0.28
0

0101000
+165 0 -145 0 *
Ed
 1e-07 1 1 0
1  36 0 4.04879020478638 4.32879020478638
2  69 5 0 4.04879020478638 4.32879020478638
2  70 22 0 4.04879020478638 4.32879020478638
2  203 31 0 4.04879020478638 4.32879020478638
0

0101000
+199 0 -207 0 *
Wi

0101100
-164 0 +153 0 +90 0 -195 0 +144 0 -89 0 -169 0 -206 0 *
Fa
0  1e-07 31 0

0101000
+88 0 *
Wi

0101100
+89 0 -198 0 -202 0 +204 0 *
Fa
0  1e-07 22 0

0101000
+86 0 *
Ed
 1e-07 1 1 0
1  100 0 0 0.28
2  204 39 0 0 0.28
2  205 32 0 0 0.28
0

0101000
+130 0 -110 0 *
Ed
 1e-07 1 1 0
1  36 0 1.95439510239321 2.23439510239321
2  69 5 0 1.95439510239321 2.23439510239321
2  70 22 0 1.95439510239321 2.23439510239321
2  206 32 0 1.95439510239321 2.23439510239321
0

0101000
+187 0 -193 0 *
Wi

0101100
-129 0 +118 0 +84 0 -186 0 +109 0 -83 0 -134 0 -192 0 *
Fa
0  1e-07 32 0

0101000
+82 0 *
Wi

0101100
-185 0 -188 0 +190 0 +83 0 *
Fa
0  1e-07 22 0

0101000
+80 0 *
Ve
1.00000000551091e-07
-9.71043101277385e-15 -41.25 2
0 0

0101101
*
Ed
 1e-07 1 1 0
1  101 0 0 6.28318530717959
2  207 33 0 0 6.28318530717959
2  208 45 0 0 6.28318530717959
0

0101100
+78 0 -78 0 *
Ed
 1e-07 1 1 0
1  102 0 3 4
3  209 210CN 33 0 3 4
0

0101000
+78 0 -183 0 *
Wi

0101100
+77 0 -76 0 -182 0 +76 0 *
Fa
0  1e-07 33 0

0101000
+75 0 *
Ve
1.00000004898587e-07
20 -4.89858719658941e-15 0
0 0

0101101
*
Ed
 1e-07 1 1 0
1  103 0 1 4
3  211 212CN 34 0 1 4
0

0101000
+73 0 -180 0 *
Ed
 1e-07 1 1 0
1  104 0 0 6.28318530717959
2  213 3 0 0 6.28318530717959
2  214 34 0 0 6.28318530717959
0

0101100
+73 0 -73 0 *
Wi

0101100
-179 0 +72 0 +71 0 -72 0 *
Fa
0  1e-07 34 0

0101000
+70 0 *
Ve
1.00000000551091e-07
5.13076103619508e-15 41.25 2
0 0

0101101
*
Ed
 1e-07 1 1 0
1  105 0 0 6.28318530717959
2  215 35 0 0 6.28318530717959
2  216 46 0 0 6.28318530717959
0

0101100
+68 0 -68 0 *
Ed
 1e-07 1 1 0
1  106 0 3 4
3  217 218CN 35 0 3 4
0

0101000
+68 0 -177 0 *
Wi

0101100
+67 0 -66 0 -176 0 +66 0 *
Fa
0  1e-07 35 0

0101000
+65 0 *
Ed
 1e-07 1 1 0
1  107 0 0 0.28
2  219 36 0 0 0.28
2  220 37 0 0 0.28
0

0101000
+162 0 -143 0 *
Wi

0101100
+63 0 -90 0 -161 0 +142 0 *
Fa
0  1e-07 36 0

0101000
+62 0 *
Ed
 1e-07 1 1 0
1  108 0 0 0.28
2  221 38 0 0 0.28
2  222 37 0 0 0.28
0

0101000
+160 0 -141 0 *
Wi

0101100
+60 0 -63 0 -159 0 +140 0 *
Fa
0  1e-07 37 0

0101000
+59 0 *
Wi

0101100
+149 0 -60 0 -156 0 +139 0 *
Fa
0  1e-07 38 0

0101000
+57 0 *
Ed
 1e-07 1 1 0
1  109 0 0 0.28
2  223 39 0 0 0.28
2  224 40 0 0 0.28
0

0101000
+127 0 -108 0 *
Wi

0101100
+55 0 -84 0 -126 0 +107 0 *
Fa
0  1e-07 39 0

0101000
+54 0 *
Ed
 1e-07 1 1 0
1  110 0 0 0.28
2  225 41 0 0 0.28
2  226 40 0 0 0.28
0

0101000
+125 0 -106 0 *
Wi

0101100
+52 0 -55 0 -124 0 +105 0 *
Fa
0  1e-07 40 0

0101000
+51 0 *
Wi

0101100
+114 0 -52 0 -121 0 +104 0 *
Fa
0  1e-07 41 0

0101000
+49 0 *
Ve
1.00000001102182e-07
-1.07611224334715e-14 -43.5 0
0 0

0101101
*
Ed
 1e-07 1 1 0
1  111 0 1 2.2
3  227 228CN 42 0 1 2.2
0

0101000
+47 0 -100 0 *
Ed
 1e-07 1 1 0
1  112 0 0 6.28318530717959
2  229 3 0 0 6.28318530717959
2  230 42 0 0 6.28318530717959
0

0101100
+47 0 -47 0 *
Wi

0101100
+46 0 +45 0 -46 0 -99 0 *
Fa
0  1e-07 42 0

0101000
+44 0 *
Ve
1.00000007347881e-07
30 -7.34788079488412e-15 0
0 0

0101101
*
Ed
 1e-07 1 1 0
1  113 0 1 2.2
3  231 232CN 43 0 1 2.2
0

0101000
+42 0 -97 0 *
Ed
 1e-07 1 1 0
1  114 0 0 6.28318530717959
2  233 3 0 0 6.28318530717959
2  234 43 0 0 6.28318530717959
0

0101100
+42 0 -42 0 *
Wi

0101100
+41 0 +40 0 -41 0 -96 0 *
Fa
0  1e-07 43 0

0101000
+39 0 *
Ve
1.00000001102182e-07
5.93165227635205e-15 43.5 0
0 0

0101101
*
Ed
 1e-07 1 1 0
1  115 0 1 2.2
3  235 236CN 44 0 1 2.2
0

0101000
+37 0 -94 0 *
Ed
 1e-07 1 1 0
1  116 0 0 6.28318530717959
2  237 3 0 0 6.28318530717959
2  238 44 0 0 6.28318530717959
0

0101100
+37 0 -37 0 *
Wi

0101100
+36 0 +35 0 -36 0 -93 0 *
Fa
0  1e-07 44 0

0101000
+34 0 *
Ve
1e-07
-1.05743328475697e-14 -43.1 2
0 0

0101101
*
Ed
 1e-07 1 1 0
1  117 0 0 6.28318530717959
2  239 47 0 0 6.28318530717959
2  240 45 0 0 6.28318530717959
0

0101000
+32 0 -32 0 *
Wi

0101100
+31 0 *
Wi

0101100
-77 0 *
Fa
0  1e-07 45 0

0101000
+30 0 +29 0 *
Wi

0101100
+40 0 *
Wi

0101100
-71 0 *
Fa
0  1e-07 3 0

0101000
+27 0 +26 0 *
Ve
1e-07
5.78927161143525e-15 43.1 2
0 0

0101101
*
Ed
 1e-07 1 1 0
1  118 0 0 6.28318530717959
2  241 48 0 0 6.28318530717959
2  242 46 0 0 6.28318530717959
0

0101000
+24 0 -24 0 *
Wi

0101100
+23 0 *
Wi

0101100
-67 0 *
Fa
0  1e-07 46 0

0101000
+22 0 +21 0 *
Wi

0101100
+45 0 *
Ve
1e-07
-1.05743328475697e-14 -43.1 0
0 0

0101101
*
Ed
 1e-07 1 1 0
1  119 0 0 6.28318530717959
2  243 47 0 0 6.28318530717959
2  244 49 0 0 6.28318530717959
2  245 3 0 0 6.28318530717959
0

0101000
+18 0 -18 0 *
Wi

0101100
-17 0 *
Fa
0  1e-07 3 0

0101000
+19 0 +16 0 *
Wi

0101100
+35 0 *
Ve
1e-07
5.78927161143525e-15 43.1 0
0 0

0101101
*
Ed
 1e-07 1 1 0
1  120 0 0 6.28318530717959
2  246 48 0 0 6.28318530717959
2  247 50 0 0 6.28318530717959
2  248 3 0 0 6.28318530717959
0

0101000
+13 0 -13 0 *
Wi

0101100
-12 0 *
Fa
0  1e-07 3 0

0101000
+14 0 +11 0 *
Ed
 1e-07 1 1 0
1  121 0 0 2
3  249 250CN 47 0 0 2
0

0101000
-32 0 +18 0 *
Wi

0101100
-31 0 +9 0 +17 0 -9 0 *
Fa
0  1e-07 47 0

0111000
+8 0 *
Ed
 1e-07 1 1 0
1  122 0 0 2
3  251 252CN 48 0 0 2
0

0101000
-24 0 +13 0 *
Wi

0101100
-23 0 +6 0 +12 0 -6 0 *
Fa
0  1e-07 48 0

0111000
+5 0 *
Sh

0101100
+356 0 +343 0 -304 0 +299 0 -297 0 -286 0 +276 0 -271 0 +268 0 +265 0 
+263 0 +258 0 +246 0 -244 0 +237 0 +225 0 +220 0 -218 0 +213 0 -208 0 
+174 0 +172 0 -167 0 +154 0 +151 0 +146 0 -137 0 -132 0 +119 0 +116 0 
+111 0 -102 0 -91 0 +87 0 +85 0 +81 0 +79 0 -74 0 -69 0 -64 0 
+61 0 +58 0 +56 0 +53 0 +50 0 +48 0 +43 0 +38 0 +33 0 -28 0 
-25 0 -20 0 -15 0 -10 0 -7 0 -4 0 *
So

0100000
+3 0 *
Co

1100000
+2 0 *

+1 0 